<svg xmlns="http://www.w3.org/2000/svg" width="960" height="540" viewBox="0 0 960 540">
  <rect width="960" height="540" rx="34" fill="#0d1016"/>
  <rect x="24" y="24" width="912" height="492" rx="26" fill="none" stroke="#d9b763" stroke-width="2" opacity=".65"/>
  <text x="58" y="78" fill="#d9b763" font-family="Noto Sans JP,sans-serif" font-size="24" letter-spacing="5">OBSERVATION 151</text>
  <text x="58" y="132" fill="#f4f1e8" font-family="Noto Sans JP,sans-serif" font-size="43" font-weight="700">前半分しかない</text>
  <text x="58" y="171" fill="#ff8e8e" font-family="Noto Sans JP,sans-serif" font-size="22">腰のあたりから後ろが存在しない</text>
  <g transform="translate(120 178)" fill="#d7b15b" stroke="#f5ddb0" stroke-width="5" stroke-linejoin="round">
    <path d="M355 72 C300 55 230 63 192 100 C151 140 164 215 218 238 C257 255 306 250 355 226 Z"/>
    <path d="M218 115 L155 52 L180 14 L249 91 Z"/>
    <path d="M181 45 L147 12 L154 74 Z"/>
    <circle cx="178" cy="50" r="8" fill="#131821" stroke="none"/>
    <path d="M236 224 L214 360 L258 360 L286 238 Z"/>
    <path d="M320 230 L340 360 L383 360 L367 219 Z"/>
    <path d="M355 72 L355 226" fill="none" stroke="#ff5757" stroke-width="13" stroke-dasharray="13 10"/>
  </g>
  <g font-family="Noto Sans JP,sans-serif" font-size="25">
    <text x="590" y="245" fill="#f4f1e8">後半：</text><text x="700" y="245" fill="#ff7979" font-weight="700">なし</text>
    <text x="590" y="292" fill="#f4f1e8">状態：</text><text x="700" y="292" fill="#d9b763">かなり中途半端</text>
    <text x="590" y="339" fill="#f4f1e8">判定：</text><text x="700" y="339" fill="#d9b763">でも一応、馬。</text>
  </g>
  <text x="58" y="487" fill="#a9b0bd" font-family="Noto Sans JP,sans-serif" font-size="22">発言と同時に図を差し替える映像演出テスト。</text>
</svg>